<?xml version="1.0" standalone="no"?>
<!DOCTYPE svg PUBLIC "-//W3C//DTD SVG 20010904//EN"
 "http://www.w3.org/TR/2001/REC-SVG-20010904/DTD/svg10.dtd">
<svg version="1.0" xmlns="http://www.w3.org/2000/svg"
 width="500.000000pt" height="500.000000pt" viewBox="0 0 500.000000 500.000000"
 preserveAspectRatio="xMidYMid meet">
<metadata>
Created by potrace 1.11, written by Peter Selinger 2001-2013
</metadata>
<g transform="translate(0.000000,500.000000) scale(0.100000,-0.100000)"
fill="#000000" stroke="none">
<path d="M2023 3882 c-226 -174 -542 -417 -702 -540 -160 -123 -300 -235 -311
-249 -39 -50 -29 -85 74 -243 52 -80 177 -272 278 -428 101 -155 213 -328 250
-385 37 -56 94 -145 128 -197 71 -109 285 -439 399 -615 43 -66 117 -179 164
-251 103 -158 118 -174 170 -174 66 0 57 -9 209 225 36 55 94 145 130 200 35
55 145 224 243 375 98 151 215 331 259 400 643 987 646 992 646 1030 0 63 5
58 -370 343 -74 56 -137 104 -140 107 -12 14 -908 698 -927 708 -60 32 -65 29
-500 -306z m570 -9 c62 -49 339 -261 615 -473 276 -212 501 -389 501 -395 0
-5 -55 -95 -124 -200 -68 -104 -154 -237 -192 -295 -37 -58 -122 -188 -188
-290 -67 -102 -258 -396 -424 -653 l-304 -468 -71 108 c-39 60 -123 188 -186
286 -63 98 -155 239 -205 315 -49 76 -115 176 -145 222 -64 100 -273 423 -469
724 -142 218 -165 256 -159 260 37 28 258 196 273 208 33 28 959 738 962 738
1 0 54 -39 116 -87z"/>
<path d="M2415 3595 c-20 -8 -52 -27 -69 -44 -67 -66 -149 -277 -170 -441 -3
-25 -9 -56 -12 -70 -3 -14 -8 -86 -11 -160 l-5 -135 -41 -42 c-47 -49 -71 -60
-93 -42 -16 13 -14 73 6 164 5 22 11 60 15 85 3 25 8 52 11 61 8 29 -20 52
-66 52 -33 0 -44 4 -47 18 -5 20 -15 22 -70 21 -81 -3 -183 -84 -235 -187 -25
-48 -32 -76 -35 -140 -4 -69 -1 -86 19 -124 32 -62 66 -84 126 -84 58 1 87 14
125 56 23 26 30 29 37 17 26 -46 81 -82 116 -75 11 2 24 4 30 4 7 1 35 17 63
36 38 26 51 31 51 20 0 -9 11 -27 24 -40 18 -18 31 -23 52 -19 43 8 51 19 80
112 33 110 87 214 131 252 40 35 58 38 73 10 18 -34 -16 -90 -72 -119 -55 -28
-69 -57 -56 -116 12 -53 52 -104 97 -122 75 -32 173 -18 233 32 l31 27 16 -26
c19 -32 66 -55 100 -49 40 7 70 30 102 81 l30 47 -6 -50 c-6 -45 -12 -55 -63
-99 -183 -160 -247 -254 -247 -363 0 -47 5 -66 20 -83 62 -69 157 -65 230 8
61 60 121 212 160 405 9 43 21 55 116 117 127 82 147 102 144 139 -3 36 -12
51 -31 51 -15 0 -83 -40 -119 -71 -11 -9 -32 -24 -48 -34 l-28 -18 5 34 c8 56
16 110 31 194 26 145 26 161 2 172 -25 11 -82 -1 -94 -20 -4 -6 -24 -62 -45
-124 -41 -125 -99 -226 -125 -221 -35 7 -34 57 8 246 12 51 18 99 15 107 -6
18 -68 20 -98 4 -23 -12 -54 -77 -62 -133 -4 -21 -8 -41 -10 -45 -2 -3 -7 -35
-11 -71 -7 -70 -31 -107 -89 -137 -39 -20 -91 -9 -113 24 -16 24 -16 26 3 39
92 64 129 127 122 209 -7 81 -50 125 -124 125 -77 0 -168 -79 -224 -194 l-29
-61 -1 53 c0 51 3 58 53 115 162 189 229 321 230 456 1 77 -14 123 -46 150
-28 23 -72 29 -112 16z m41 -118 c28 -73 -15 -223 -97 -344 -50 -73 -60 -81
-53 -41 30 174 59 287 91 351 23 46 48 61 59 34z m-573 -639 c-35 -172 -70
-222 -130 -183 -24 16 -25 20 -20 82 11 117 77 205 168 222 3 0 -5 -54 -18
-121z m1057 -505 c-34 -123 -83 -213 -115 -213 -44 0 -38 83 11 156 27 41 104
123 116 123 4 1 -2 -29 -12 -66z"/>
</g>
</svg>
