<?xml version="1.0" standalone="no"?>
<!DOCTYPE svg PUBLIC "-//W3C//DTD SVG 20010904//EN"
 "http://www.w3.org/TR/2001/REC-SVG-20010904/DTD/svg10.dtd">
<svg version="1.0" xmlns="http://www.w3.org/2000/svg"
 width="500.000000pt" height="500.000000pt" viewBox="0 0 500.000000 500.000000"
 preserveAspectRatio="xMidYMid meet">
<metadata>
Created by potrace 1.11, written by Peter Selinger 2001-2013
</metadata>
<g transform="translate(0.000000,500.000000) scale(0.100000,-0.100000)"
fill="#000000" stroke="none">
<path d="M2449 4200 c-14 -4 -345 -252 -734 -551 -756 -581 -746 -572 -727
-642 10 -35 1379 -2146 1417 -2186 36 -37 107 -34 144 5 16 16 340 510 721
1097 742 1145 719 1106 679 1168 -14 21 -1336 1044 -1408 1090 -36 23 -62 28
-92 19z m679 -743 c361 -279 579 -453 575 -460 -22 -40 -1208 -1864 -1218
-1875 -9 -11 -133 173 -624 930 -337 519 -613 946 -614 950 -1 4 275 221 613
481 l615 475 36 -27 c19 -14 297 -228 617 -474z"/>
<path d="M2393 3590 c-126 -64 -217 -326 -244 -705 -10 -141 -12 -152 -37
-178 -32 -34 -72 -56 -89 -50 -19 7 -16 82 7 203 11 58 20 113 20 122 0 30
-30 50 -72 46 -25 -2 -38 1 -38 9 0 21 -40 35 -84 29 -88 -14 -184 -91 -234
-192 -26 -52 -45 -154 -36 -202 26 -148 167 -200 272 -99 l33 32 24 -31 c51
-65 122 -68 200 -9 37 29 45 32 45 17 0 -27 37 -62 66 -62 48 0 62 17 90 108
43 140 105 252 154 277 35 17 50 9 50 -29 0 -38 -25 -68 -80 -96 -55 -28 -65
-51 -51 -114 31 -140 204 -192 330 -98 l33 25 25 -31 c48 -62 131 -51 188 27
l27 36 -6 -40 c-4 -29 -14 -45 -38 -64 -72 -53 -215 -207 -238 -255 -28 -59
-37 -144 -20 -186 31 -74 149 -93 224 -36 66 50 118 160 167 356 16 63 33 117
37 121 4 4 55 38 114 78 59 39 112 80 118 90 24 46 1 105 -37 94 -10 -2 -54
-31 -98 -63 -44 -32 -81 -57 -81 -57 -1 1 12 87 30 190 30 187 31 189 11 204
-24 17 -70 11 -97 -14 -10 -8 -29 -54 -44 -101 -33 -108 -76 -201 -108 -231
-50 -47 -59 4 -25 159 34 159 35 176 9 190 -18 10 -32 10 -62 0 -32 -9 -43
-19 -58 -53 -22 -51 -50 -181 -50 -236 0 -32 -6 -44 -36 -71 -65 -57 -116 -61
-154 -13 l-20 25 39 28 c70 51 95 94 99 169 3 57 0 71 -20 101 -30 44 -85 65
-136 51 -76 -22 -139 -83 -193 -189 l-29 -57 0 46 c0 40 6 52 47 100 182 212
260 382 239 522 -15 101 -99 149 -183 107z m65 -196 c-4 -56 -13 -89 -41 -148
-38 -81 -96 -171 -104 -162 -8 8 36 218 62 296 30 87 51 116 73 98 11 -10 13
-29 10 -84z m-561 -466 c-3 -13 -13 -63 -23 -113 -20 -103 -35 -138 -69 -161
-29 -19 -60 -6 -69 30 -8 32 9 117 33 164 38 75 142 140 128 80z m1029 -630
c-34 -109 -69 -168 -102 -168 -21 0 -24 5 -24 35 0 20 9 55 21 78 20 40 118
151 127 143 2 -3 -8 -42 -22 -88z"/>
</g>
</svg>
